<svg xmlns="http://www.w3.org/2000/svg" width="24" height="28" viewBox="147 0 25 29"><g fill="none"><g id="AndroidGroup" fill="#fff"><path d="M148.77 9.06c-.98 0-1.77.77-1.77 1.72v7.24c0 .95.8 1.72 1.77 1.72.98 0 1.76-.78 1.76-1.72v-7.24c0-.95-.8-1.72-1.76-1.72zm14.27-6.5l1.24-2.2c.06-.12.02-.26-.1-.33-.1-.06-.27-.02-.33.1l-1.25 2.22c-1.05-.45-2.22-.7-3.47-.7-1.24 0-2.4.24-3.46.7L154.43.13c-.07-.12-.22-.16-.34-.1-.12.06-.17.2-.1.33l1.23 2.2c-2.43 1.22-4.07 3.55-4.07 6.22h15.94c0-2.67-1.63-5-4.06-6.22zm-7.54 3.4c-.36 0-.67-.3-.67-.65 0-.35.3-.64.67-.64.37 0 .67.3.67.65 0 .37-.3.66-.67.66zm7.27 0c-.37 0-.67-.3-.67-.65 0-.35.3-.64.67-.64.36 0 .66.3.66.65 0 .37-.3.66-.66.66zm-11.55 3.42V20.6c0 1.02.84 1.85 1.9 1.85h1.28v3.83c0 .94.8 1.72 1.76 1.72.98 0 1.77-.78 1.77-1.73v-3.83h2.4v3.83c0 .95.78 1.72 1.76 1.72.97 0 1.76-.78 1.76-1.73v-3.83h1.3c1.03 0 1.88-.82 1.88-1.85V9.37h-15.82zm20.05 1.4c0-.96-.8-1.72-1.77-1.72-.98 0-1.77.77-1.77 1.72v7.24c0 .95.8 1.72 1.77 1.72.98 0 1.77-.78 1.77-1.72v-7.24z"></path></g></g></svg> 