<svg width="23px" height="28px" viewBox="0 0 23 28" version="1.1" xmlns="http://www.w3.org/2000/svg"><g id="apple" fill="none" fill-rule="evenodd"><path id="apple-leaf" d="M15.657 4.468c.967-1.191 1.63-2.812 1.445-4.457-1.4.06-3.15.954-4.158 2.119-.892 1.027-1.69 2.71-1.483 4.293 1.572.115 3.187-.782 4.196-1.955z" fill="#858c94"></path><g transform="translate(0 6.496)"><path id="apple-logo" d="M19.199 8.305c-.033-3.514 2.92-5.223 3.055-5.303C20.582.601 17.99.272 17.08.246 14.902.021 12.791 1.53 11.682 1.53 10.55 1.53 8.843.27 7.002.305 4.635.341 2.42 1.692 1.205 3.79-1.304 8.066.566 14.351 2.969 17.807c1.202 1.693 2.606 3.584 4.444 3.517 1.799-.073 2.47-1.13 4.64-1.13 2.151 0 2.782 1.13 4.657 1.088 1.93-.03 3.145-1.701 4.305-3.41 1.389-1.94 1.946-3.85 1.968-3.949-.045-.015-3.748-1.407-3.784-5.618z" fill="#858c94"></path></g></g></svg>