<svg width="66" height="65" viewBox="0 0 66 65" fill="none" xmlns="http://www.w3.org/2000/svg" aria-hidden="true"><circle cx="32.609" cy="32.206" r="31.25" stroke="#000" stroke-width="1.5"></circle><path d="M23.234 42.475h-1.333c-.134 0-.134 0-.134-.133V30.875c0-.133 0-.133.134-.133h4.266v-1.467h-4.266c-.934 0-1.6.667-1.6 1.6v11.467c0 .933.666 1.6 1.6 1.6h1.333v-1.467ZM37.905 42.34c0 .133 0 .133-.133.133h-11.6v1.467c0 .8-.667 1.467-1.467 1.467h-1.467v1.467h1.467c1.6 0 2.933-1.2 2.933-2.8v-.134h10.267c.933 0 1.6-.666 1.6-1.6v-7.2h-1.467v7.2h-.133ZM45.1 17.54H29.232c-.934 0-1.6.667-1.6 1.6v11.467c0 .934.666 1.6 1.6 1.6h10.133c0 1.6 1.2 2.934 2.8 2.934h1.467v-1.467h-1.467a1.48 1.48 0 0 1-1.466-1.467v-1.466H29.233c-.134 0-.134 0-.134-.134V19.141c0-.134 0-.134.134-.134h15.866c.134 0 .134 0 .134.133v11.467c0 .134 0 .134-.133.134h-1.334v1.466H45.1c.933 0 1.6-.666 1.6-1.6V19.141c0-.934-.667-1.6-1.6-1.6Z" fill="#000"></path></svg>