<svg width="66" height="65" viewBox="0 0 66 65" fill="none" xmlns="http://www.w3.org/2000/svg" aria-hidden="true" style=""><circle cx="32.609" cy="32.206" r="31.25" stroke="#000" stroke-width="1.5"></circle><path d="M34.163 43.939v-4.4h-5.866v4.4h1.466v-2.934h2.934v2.934h1.466ZM40.835 27.806c.4 0 .8.267.8.8v15.467H43.1v-15.6c0-1.2-.933-2.134-2.133-2.134h-.8v1.467h.667Z" fill="#000" style=""></path><path d="M25.365 19.672c0-.4.267-.8.8-.8h10.267c.4 0 .8.267.8.8v24.133h1.466V19.672c0-1.2-.933-2.133-2.133-2.133h-10.4c-1.2 0-2.267.933-2.267 2.133v24.267h1.467V19.672Z" fill="#000"></path><path d="M35.633 21.937h-2.934v1.467h2.934v-1.467ZM29.77 21.937h-2.934v1.467h2.933v-1.467ZM29.77 26.34h-2.934v1.466h2.933v-1.467ZM29.77 30.738h-2.934v1.467h2.933v-1.467ZM29.77 35.138h-2.934v1.467h2.933v-1.467ZM35.633 26.34h-2.934v1.466h2.934v-1.467ZM35.633 30.738h-2.934v1.467h2.934v-1.467ZM35.633 35.138h-2.934v1.467h2.934v-1.467ZM45.232 45.406H21.766v1.466h23.466v-1.466Z" fill="#000"></path></svg>