<svg width="40" height="40" viewBox="0 0 40 40" fill="none" xmlns="http://www.w3.org/2000/svg" style=""><rect x="0.25" y="0.25" width="39.5" height="39.5" rx="19.75" fill="white"></rect><path class="SvgLink__SvgLink-module__innerLogo" fill-rule="evenodd" clip-rule="evenodd" d="M20.8467 23.6872C20.8467 23.7539 20.9 23.8072 20.9667 23.8072H29.88C29.9467 23.8072 30 23.7539 30 23.6872V15.5406C30 13.5472 29.2867 11.9272 27.8467 10.7939C26.52 9.7539 24.5333 9.12723 21.88 9.00056C21.8133 8.9939 21.76 9.04723 21.76 9.1139V12.1872C21.76 12.2472 21.8067 12.2939 21.8667 12.3006C24.2 12.4539 25.9733 13.1472 25.9733 15.5806H20.9667C20.9 15.5806 20.8467 15.6339 20.8467 15.7006V23.6872ZM10 15.7006C10 15.6339 10.0533 15.5806 10.12 15.5806H19.0333C19.1 15.5806 19.1533 15.6339 19.1533 15.7006V23.8406C19.1533 25.8339 18.44 27.4539 17 28.5872C15.6733 29.6272 13.6867 30.2539 11.0333 30.3805C10.9667 30.3872 10.9133 30.3339 10.9133 30.2672V27.1939C10.9133 27.1339 10.96 27.0872 11.02 27.0805C13.3533 26.9272 15.1267 26.2339 15.1267 23.8005H10.12C10.0533 23.8005 10 23.7472 10 23.6805V15.7006Z" fill="black"></path><rect class="SvgLink__SvgLink-module__border" x="0.25" y="0.25" width="39.5" height="39.5" rx="19.75" stroke="black" stroke-width="0.5" style="outline: rgb(255, 0, 0) dashed 1px;"></rect></svg>