<svg width="66" height="65" viewBox="0 0 66 65" fill="none" xmlns="http://www.w3.org/2000/svg" aria-hidden="true" style=""><circle cx="32.609" cy="32.206" r="31.25" stroke="#000" stroke-width="1.5"></circle><path fill-rule="evenodd" clip-rule="evenodd" d="m45.5 26.954-.132.019a2.333 2.333 0 0 1-2.617-2.767h2.083c.366 0 .666.299.666.667v2.08Zm0 6.505H45.5a4.081 4.081 0 0 0-4.081 4.08H25.58a4.08 4.08 0 0 0-4.08-4.08v-5.172a4.081 4.081 0 0 0 4.08-4.081h15.838a4.081 4.081 0 0 0 4.081 4.081h.001v5.172Zm0 3.414c0 .369-.3.666-.666.666H42.75a2.752 2.752 0 0 1 2.748-2.746h.001v2.08Zm-23.333.666a.666.666 0 0 1-.667-.666v-2.08a2.751 2.751 0 0 1 2.747 2.746h-2.08ZM21.5 24.873c0-.368.299-.667.667-.667h2.08a2.75 2.75 0 0 1-2.747 2.748v-2.081Zm23.932-2H21.567c-.772 0-1.4.628-1.4 1.4V37.474a1.4 1.4 0 0 0 1.4 1.399H45.432c.772 0 1.402-.627 1.402-1.4v-13.2c0-.772-.63-1.4-1.402-1.4Zm-11.963 10.7a2.67 2.67 0 0 1-2.667-2.667 2.67 2.67 0 0 1 2.667-2.667 2.67 2.67 0 0 1 2.667 2.667 2.67 2.67 0 0 1-2.667 2.666Zm0-6.667a4 4 0 1 0 0 8 4 4 0 0 0 0-8ZM33.5 41.54h-9.333a1.333 1.333 0 0 1-1.333-1.333h21.333c0 .736-.597 1.333-1.333 1.333H33.5Z" fill="#000"></path></svg>