<svg width="40" height="40" viewBox="0 0 40 40" fill="none" xmlns="http://www.w3.org/2000/svg" style=""><rect x="0.25" y="0.25" width="39.5" height="39.5" rx="19.75" fill="white"></rect><path d="M27.0124 13.2147C25.7773 12.4092 24.8854 11.1207 24.6073 9.61821C24.5472 9.2932 24.5143 8.95914 24.5143 8.61768H20.5714L20.5649 24.4189C20.4982 26.1887 19.0427 27.6089 17.2572 27.6089C16.7026 27.6089 16.1801 27.4699 15.7202 27.228C14.6653 26.6726 13.9429 25.5667 13.9429 24.2946C13.9429 22.4672 15.4297 20.9804 17.2572 20.9804C17.5986 20.9804 17.9253 21.0363 18.2355 21.1334V17.1082C17.9154 17.0646 17.5896 17.0375 17.2572 17.0375C13.2559 17.0375 10 20.2933 10 24.2946C10 26.7499 11.2268 28.9229 13.0979 30.2361C14.277 31.0639 15.7103 31.551 17.2572 31.551C21.2585 31.551 24.5143 28.296 24.5143 24.2938V16.2813C26.0604 17.3913 27.9553 18.0454 30 18.0454V14.1025C28.8991 14.1025 27.873 13.775 27.0132 13.2139L27.0124 13.2147Z" fill="black"></path><rect class="SvgLink__SvgLink-module__border" x="0.25" y="0.25" width="39.5" height="39.5" rx="19.75" stroke="black" stroke-width="0.5" style="outline: rgb(255, 0, 0) dashed 1px;"></rect></svg>