<svg width="40" height="40" viewBox="0 0 40 40" fill="none" xmlns="http://www.w3.org/2000/svg" style=""><rect x="0.25" y="0.25" width="39.5" height="39.5" rx="19.75" fill="white"></rect><path fill-rule="evenodd" clip-rule="evenodd" d="M30.936 24.2713C30.936 24.2713 30.7195 25.8053 30.0551 26.4808C29.2126 27.3673 28.2682 27.3717 27.8351 27.4236C24.7345 27.6488 20.0786 27.6558 20.0786 27.6558C20.0786 27.6558 14.3179 27.603 12.5452 27.4322C12.0521 27.3393 10.9449 27.3673 10.1021 26.4808C9.43776 25.8053 9.22157 24.2713 9.22157 24.2713C9.22157 24.2713 9 22.4701 9 20.6687V18.98C9 17.1787 9.22157 15.3774 9.22157 15.3774C9.22157 15.3774 9.43776 13.8435 10.1021 13.168C10.9449 12.2814 11.8891 12.277 12.3222 12.2251C15.4229 12 20.0738 12 20.0738 12H20.0834C20.0834 12 24.7345 12 27.8351 12.2251C28.2682 12.277 29.2126 12.2814 30.0551 13.168C30.7195 13.8435 30.936 15.3774 30.936 15.3774C30.936 15.3774 31.1572 17.1787 31.1572 18.98V20.6687C31.1572 22.4701 30.936 24.2713 30.936 24.2713ZM17.7652 16.6445V22.9136L23.6462 19.7132L17.7652 16.6445Z" fill="black"></path><rect class="SvgLink__SvgLink-module__border" x="0.25" y="0.25" width="39.5" height="39.5" rx="19.75" stroke="black" stroke-width="0.5" style="outline: rgb(255, 0, 0) dashed 1px;"></rect></svg>